<svg width="120px" height="120px" viewBox="0 0 120 120" version="1.1" xmlns="http://www.w3.org/2000/svg" xmlns:xlink="http://www.w3.org/1999/xlink">
  <title>切片</title>
  <g id="文件管理器" stroke="none" stroke-width="1" fill="none" fill-rule="evenodd">
      <g id="画板" transform="translate(-130.000000, -1571.000000)">
          <g id="icon/文件类型/说明" transform="translate(130.000000, 1571.000000)">
              <rect id="矩形" x="0" y="0" width="120" height="120"></rect>
              <g id="编组-4" transform="translate(3.750000, 0.000000)">
                  <path d="M15,0 L76.2867966,0 C80.2650439,0 84.0803526,1.58035261 86.8933983,4.39339828 L108.106602,25.6066017 C110.919647,28.4196474 112.5,32.2349561 112.5,36.2132034 L112.5,105 C112.5,113.284271 105.784271,120 97.5,120 L15,120 C6.71572875,120 0,113.284271 0,105 L0,15 C0,6.71572875 6.71572875,0 15,0 Z" id="矩形" fill="#FFFFFF"></path>
                  <path d="M76.2867966,0 C80.2650439,0 84.0803526,1.58035261 86.8933983,4.39339828 L108.106602,25.6066017 C110.919647,28.4196474 112.5,32.2349561 112.5,36.2132034 L112.5,105 C112.5,113.284271 105.784271,120 97.5,120 L15,120 C6.71572875,120 0,113.284271 0,105 L0,15 C0,6.71572875 6.71572875,0 15,0 L76.2867966,0 Z M76.2867966,3.75 L15,3.75 C8.78679656,3.75 3.75,8.78679656 3.75,15 L3.75,105 C3.75,111.213203 8.78679656,116.25 15,116.25 L97.5,116.25 C103.713203,116.25 108.75,111.213203 108.75,105 L108.75,36.2132034 C108.75,33.2295179 107.564736,30.3680364 105.454951,28.2582521 L84.2417479,7.04504871 C82.1319636,4.93526445 79.2704821,3.75 76.2867966,3.75 Z" id="矩形" fill="#BFBFBF" fill-rule="nonzero"></path>
                  <rect id="矩形备份-2" fill-opacity="0.15" fill="#000000" x="22.5" y="67.5" width="71.25" height="7.5" rx="3.75"></rect>
                  <rect id="矩形备份-4" fill-opacity="0.15" fill="#000000" x="22.5" y="90" width="37.5" height="7.5" rx="3.75"></rect>
                  <rect id="矩形备份-5" fill-opacity="0.15" fill="#000000" x="22.5" y="45" width="37.5" height="7.5" rx="3.75"></rect>
              </g>
          </g>
      </g>
  </g>
</svg>
