<svg width="66" height="92" viewBox="0 0 66 92" fill="none" xmlns="http://www.w3.org/2000/svg">
<rect x="0.5" y="0.5" width="65" height="91" rx="8.5" fill="white" />
<g opacity="0.12">
<path d="M35.1702 57.5951C30.8706 58.3945 26.9678 65.4703 25.9082 68.4965C25.9082 68.4965 24.8446 60.4428 20.5198 57.5951C16.195 54.7474 4.65909 56.412 4.65909 56.412C4.65909 56.412 7.68923 55.0844 10.1371 53.0863C12.4618 51.1889 14.1959 49.3156 14.7234 47.6646C15.8062 44.275 10.7422 40.7576 10.7422 40.7576C10.7422 40.7576 17.8684 41.2201 21.6982 38.1674C25.528 35.1147 30.2336 28.958 30.2336 28.958C30.2336 28.958 31.4439 35.1296 35.1384 34.9058C38.8237 34.6825 40.6616 33.1992 43.7149 30.735L43.7375 30.7168C47.096 28.0063 49.6294 24.5132 49.6294 24.5132C49.6294 24.5132 47.8107 32.7145 50.3939 37.5775C52.977 42.4404 61.6045 43.5252 61.6045 43.5252C61.6045 43.5252 54.5979 46.0834 53.9928 49.0892C53.3876 52.0951 55.0437 54.1416 55.0437 54.1416C55.0437 54.1416 49.2637 53.0658 47.0498 54.5893C44.8358 56.1128 43.7375 62.0079 43.7375 62.0079C43.7375 62.0079 39.4698 56.7957 35.1702 57.5951Z" fill="black"/>
<path d="M36.454 55.915C30.5667 56.4668 27.4921 61.7605 26.6908 64.3384C26.4801 54.0295 15.608 53.4566 10.1661 54.4806C10.1661 54.4806 11.5622 53.6808 12.6754 52.7537C14.5493 51.193 16.2837 48.9575 16.1999 47.6326C16.3409 44.4053 13.9443 42.2538 13.9443 42.2538C13.9443 42.2538 18.8032 41.3749 22.6567 38.9417C26.1235 36.7526 28.37 33.1972 29.6093 31.4054C29.6093 31.4054 31.3687 36.4168 35.7554 36.2394C39.1464 36.1023 45.2066 31.0258 47.3058 28.745C47.3058 31.74 46.6359 34.9697 50.2348 40.3738C52.8779 43.1878 55.4255 42.8234 56.7244 43.3712C57.4526 43.6783 58.3209 43.8397 58.3209 43.8397C58.3209 43.8397 54.645 44.9435 52.8779 46.9925C51.4335 48.6674 51.7773 51.2457 52.1801 52.107C52.1801 52.107 48.0217 51.3572 45.4811 52.9828C43.2232 54.4276 42.5468 58.1628 42.5851 59.6738C42.0967 58.4827 39.6331 55.6171 36.454 55.915Z" fill="white"/>
<path d="M11.6937 50.0002V49.4525L16.7396 51.2667L11.6937 50.0002Z" fill="black"/>
<path d="M55.5295 40.574L55.181 40.0491L51.5219 43.169L55.5295 40.574Z" fill="black"/>
<path d="M21.8195 36.7871L22.3991 36.2737L24.4106 39.5256L21.8195 36.7871Z" fill="black"/>
<path d="M25.5015 30.7283L24.7515 30.9679L26.8994 37.4032L25.5015 30.7283Z" fill="black"/>
<g filter="url(#filter0_d_2167_31238)">
<path d="M28.6911 55.0094L25.9213 47.2717L24.5187 51.5132L23.5989 53.9624C23.4354 54.3978 22.819 54.3943 22.6623 53.9564C22.2546 52.8166 21.6682 51.1694 21.3041 50.1099C20.7007 48.3543 19.7442 44.4757 19.7442 44.4757L22.4276 43.1031L23.3896 49.1018L25.0839 44.8283C25.2381 44.4393 25.7734 44.4005 25.9821 44.7632L28.0984 48.4409L28.6048 39.8496L31.8959 38.782C31.8959 38.782 30.44 50.8891 30.1442 52.3902C30.0069 53.0864 29.8183 54.0743 29.6555 54.9335C29.5606 55.4348 28.8631 55.4897 28.6911 55.0094Z" fill="black"/>
<path d="M28.6911 55.0094L25.9213 47.2717L24.5187 51.5132L23.5989 53.9624C23.4354 54.3978 22.819 54.3943 22.6623 53.9564C22.2546 52.8166 21.6682 51.1694 21.3041 50.1099C20.7007 48.3543 19.7442 44.4757 19.7442 44.4757L22.4276 43.1031L23.3896 49.1018L25.0839 44.8283C25.2381 44.4393 25.7734 44.4005 25.9821 44.7632L28.0984 48.4409L28.6048 39.8496L31.8959 38.782C31.8959 38.782 30.44 50.8891 30.1442 52.3902C30.0069 53.0864 29.8183 54.0743 29.6555 54.9335C29.5606 55.4348 28.8631 55.4897 28.6911 55.0094Z" stroke="white" stroke-width="0.5"/>
</g>
<g filter="url(#filter1_d_2167_31238)">
<path d="M37.7746 48.0613L37.5059 42.8386L39.217 42.4748L38.9956 46.0322L40.2807 44.2562C40.5224 43.9222 41.0417 44.0078 41.1635 44.4017L41.7737 46.3758L43.3439 41.5652L45.3973 41.4641L42.0906 49.5908C41.8953 50.0707 41.1888 49.9733 41.1307 49.4584L40.8325 46.8189C40.7811 46.3639 40.1959 46.2116 39.9292 46.5838L38.6804 48.3268C38.4049 48.7113 37.7989 48.5337 37.7746 48.0613Z" fill="black"/>
<path d="M37.7746 48.0613L37.5059 42.8386L39.217 42.4748L38.9956 46.0322L40.2807 44.2562C40.5224 43.9222 41.0417 44.0078 41.1635 44.4017L41.7737 46.3758L43.3439 41.5652L45.3973 41.4641L42.0906 49.5908C41.8953 50.0707 41.1888 49.9733 41.1307 49.4584L40.8325 46.8189C40.7811 46.3639 40.1959 46.2116 39.9292 46.5838L38.6804 48.3268C38.4049 48.7113 37.7989 48.5337 37.7746 48.0613Z" stroke="white" stroke-width="0.5"/>
</g>
<g filter="url(#filter2_d_2167_31238)">
<path d="M45.8511 47.2066L44.6922 46.8187L46.9886 41.5178L49.3924 42.3366L45.8511 47.2066Z" fill="black"/>
<path d="M45.8511 47.2066L44.6922 46.8187L46.9886 41.5178L49.3924 42.3366L45.8511 47.2066Z" stroke="white" stroke-width="0.5"/>
</g>
<g filter="url(#filter3_d_2167_31238)">
<ellipse cx="44.859" cy="48.2698" rx="0.807837" ry="0.734804" fill="black"/>
<path d="M44.8587 47.785C45.1894 47.785 45.4161 48.0236 45.4164 48.2694C45.4164 48.5154 45.1896 48.7548 44.8587 48.7548C44.5279 48.7547 44.3011 48.5153 44.3011 48.2694C44.3014 48.0236 44.5281 47.7851 44.8587 47.785Z" stroke="white" stroke-width="0.5"/>
</g>
<g filter="url(#filter4_d_2167_31238)">
<mask id="path-13-inside-1_2167_31238" fill="white">
<path d="M34.7358 41.4893C36.1579 41.6325 37.0859 44.0032 36.808 46.7842C36.5301 49.565 35.1519 51.7034 33.7299 51.5605C32.3078 51.4173 31.3798 49.0466 31.6577 46.2656C31.9356 43.4848 33.3138 41.3463 34.7358 41.4893ZM34.477 43.1562C33.9501 43.1123 33.4016 44.5394 33.2524 46.3437C33.1032 48.1476 33.4093 49.6457 33.936 49.6904C34.4629 49.7344 35.0114 48.3073 35.1606 46.5029C35.3098 44.6987 35.0038 43.2004 34.477 43.1562Z"/>
</mask>
<path d="M34.7358 41.4893C36.1579 41.6325 37.0859 44.0032 36.808 46.7842C36.5301 49.565 35.1519 51.7034 33.7299 51.5605C32.3078 51.4173 31.3798 49.0466 31.6577 46.2656C31.9356 43.4848 33.3138 41.3463 34.7358 41.4893ZM34.477 43.1562C33.9501 43.1123 33.4016 44.5394 33.2524 46.3437C33.1032 48.1476 33.4093 49.6457 33.936 49.6904C34.4629 49.7344 35.0114 48.3073 35.1606 46.5029C35.3098 44.6987 35.0038 43.2004 34.477 43.1562Z" fill="black"/>
<path d="M34.7358 41.4893L34.7859 40.9918L34.7858 40.9918L34.7358 41.4893ZM36.808 46.7842L37.3056 46.8339L37.3056 46.8339L36.808 46.7842ZM33.7299 51.5605L33.6798 52.058L33.6799 52.058L33.7299 51.5605ZM31.6577 46.2656L31.1601 46.2159L31.1601 46.2159L31.6577 46.2656ZM34.477 43.1562L34.5188 42.658L34.5185 42.658L34.477 43.1562ZM33.2524 46.3437L32.7541 46.3025L32.7541 46.3025L33.2524 46.3437ZM33.936 49.6904L33.8936 50.1886L33.8944 50.1887L33.936 49.6904ZM35.1606 46.5029L35.6589 46.5441V46.5441L35.1606 46.5029ZM34.7358 41.4893L34.6857 41.9867C35.1128 42.0298 35.5922 42.4314 35.9438 43.3298C36.2845 44.2002 36.4433 45.4061 36.3105 46.7345L36.808 46.7842L37.3056 46.8339C37.4507 45.3813 37.2844 44.0114 36.875 42.9653C36.4766 41.9474 35.7808 41.092 34.7859 40.9918L34.7358 41.4893ZM36.808 46.7842L36.3105 46.7345C36.1778 48.0628 35.7836 49.2129 35.2777 49.9979C34.7556 50.8082 34.2068 51.1059 33.7799 51.063L33.7299 51.5605L33.6799 52.058C34.6751 52.158 35.5264 51.458 36.1183 50.5396C36.7265 49.5959 37.1604 48.2864 37.3056 46.8339L36.808 46.7842ZM33.7299 51.5605L33.78 51.0631C33.3529 51.02 32.8736 50.6184 32.5219 49.72C32.1813 48.8496 32.0225 47.6437 32.1552 46.3153L31.6577 46.2656L31.1601 46.2159C31.015 47.6685 31.1813 49.0384 31.5907 50.0844C31.9891 51.1024 32.6849 51.9578 33.6798 52.058L33.7299 51.5605ZM31.6577 46.2656L32.1552 46.3153C32.2879 44.987 32.6821 43.8369 33.188 43.0519C33.7101 42.2416 34.2589 41.9438 34.6858 41.9867L34.7358 41.4893L34.7858 40.9918C33.7906 40.8917 32.9393 41.5917 32.3474 42.5102C31.7392 43.4539 31.3053 44.7634 31.1601 46.2159L31.6577 46.2656ZM34.477 43.1562L34.5185 42.658C34.139 42.6263 33.8615 42.8653 33.6978 43.0648C33.5223 43.2788 33.3766 43.5646 33.2563 43.8776C33.0133 44.5099 32.8315 45.3668 32.7541 46.3025L33.2524 46.3437L33.7507 46.385C33.8225 45.5164 33.9895 44.7575 34.1898 44.2362C34.2912 43.9724 34.3907 43.7969 34.4709 43.6992C34.5628 43.5871 34.5516 43.6642 34.4355 43.6545L34.477 43.1562ZM33.2524 46.3437L32.7541 46.3025C32.6767 47.238 32.7153 48.113 32.8509 48.7768C32.918 49.1054 33.0146 49.4112 33.1524 49.6512C33.2808 49.875 33.5146 50.1564 33.8936 50.1886L33.936 49.6904L33.9783 49.1922C34.094 49.2021 34.092 49.2795 34.0196 49.1533C33.9566 49.0435 33.8872 48.8537 33.8306 48.5767C33.7188 48.0293 33.6789 47.2533 33.7507 46.385L33.2524 46.3437ZM33.936 49.6904L33.8944 50.1887C34.274 50.2203 34.5514 49.9814 34.7152 49.7818C34.8907 49.5679 35.0364 49.2821 35.1566 48.9691C35.3996 48.3368 35.5815 47.4799 35.6589 46.5441L35.1606 46.5029L34.6623 46.4617C34.5904 47.3303 34.4235 48.0892 34.2232 48.6105C34.1218 48.8743 34.0222 49.0498 33.9421 49.1475C33.8501 49.2595 33.8614 49.1825 33.9775 49.1922L33.936 49.6904ZM35.1606 46.5029L35.6589 46.5441C35.7363 45.6085 35.6978 44.7334 35.5622 44.0695C35.4951 43.7409 35.3985 43.435 35.2606 43.195C35.1321 42.9713 34.8981 42.6898 34.5188 42.658L34.477 43.1562L34.4352 43.6545C34.3193 43.6448 34.3211 43.5671 34.3935 43.6931C34.4565 43.8029 34.5258 43.9926 34.5824 44.2696C34.6942 44.817 34.7341 45.5931 34.6623 46.4617L35.1606 46.5029Z" fill="white" mask="url(#path-13-inside-1_2167_31238)"/>
</g>
</g>
<defs>
<filter id="filter0_d_2167_31238" x="19.454" y="38.4236" width="13.7367" height="18.1676" filterUnits="userSpaceOnUse" color-interpolation-filters="sRGB">
<feFlood flood-opacity="0" result="BackgroundImageFix"/>
<feColorMatrix in="SourceAlpha" type="matrix" values="0 0 0 0 0 0 0 0 0 0 0 0 0 0 0 0 0 0 127 0" result="hardAlpha"/>
<feOffset dx="1" dy="1"/>
<feComposite in2="hardAlpha" operator="out"/>
<feColorMatrix type="matrix" values="0 0 0 0 0 0 0 0 0 0 0 0 0 0 0 0 0 0 0.25 0"/>
<feBlend mode="normal" in2="BackgroundImageFix" result="effect1_dropShadow_2167_31238"/>
<feBlend mode="normal" in="SourceGraphic" in2="effect1_dropShadow_2167_31238" result="shape"/>
</filter>
<filter id="filter1_d_2167_31238" x="37.2453" y="41.1951" width="9.5314" height="9.95758" filterUnits="userSpaceOnUse" color-interpolation-filters="sRGB">
<feFlood flood-opacity="0" result="BackgroundImageFix"/>
<feColorMatrix in="SourceAlpha" type="matrix" values="0 0 0 0 0 0 0 0 0 0 0 0 0 0 0 0 0 0 127 0" result="hardAlpha"/>
<feOffset dx="1" dy="1"/>
<feComposite in2="hardAlpha" operator="out"/>
<feColorMatrix type="matrix" values="0 0 0 0 0 0 0 0 0 0 0 0 0 0 0 0 0 0 0.25 0"/>
<feBlend mode="normal" in2="BackgroundImageFix" result="effect1_dropShadow_2167_31238"/>
<feBlend mode="normal" in="SourceGraphic" in2="effect1_dropShadow_2167_31238" result="shape"/>
</filter>
<filter id="filter2_d_2167_31238" x="44.3545" y="41.2067" width="6.43958" height="7.2951" filterUnits="userSpaceOnUse" color-interpolation-filters="sRGB">
<feFlood flood-opacity="0" result="BackgroundImageFix"/>
<feColorMatrix in="SourceAlpha" type="matrix" values="0 0 0 0 0 0 0 0 0 0 0 0 0 0 0 0 0 0 127 0" result="hardAlpha"/>
<feOffset dx="1" dy="1"/>
<feComposite in2="hardAlpha" operator="out"/>
<feColorMatrix type="matrix" values="0 0 0 0 0 0 0 0 0 0 0 0 0 0 0 0 0 0 0.25 0"/>
<feBlend mode="normal" in2="BackgroundImageFix" result="effect1_dropShadow_2167_31238"/>
<feBlend mode="normal" in="SourceGraphic" in2="effect1_dropShadow_2167_31238" result="shape"/>
</filter>
<filter id="filter3_d_2167_31238" x="44.0511" y="47.535" width="2.61566" height="2.4696" filterUnits="userSpaceOnUse" color-interpolation-filters="sRGB">
<feFlood flood-opacity="0" result="BackgroundImageFix"/>
<feColorMatrix in="SourceAlpha" type="matrix" values="0 0 0 0 0 0 0 0 0 0 0 0 0 0 0 0 0 0 127 0" result="hardAlpha"/>
<feOffset dx="1" dy="1"/>
<feComposite in2="hardAlpha" operator="out"/>
<feColorMatrix type="matrix" values="0 0 0 0 0 0 0 0 0 0 0 0 0 0 0 0 0 0 0.25 0"/>
<feBlend mode="normal" in2="BackgroundImageFix" result="effect1_dropShadow_2167_31238"/>
<feBlend mode="normal" in="SourceGraphic" in2="effect1_dropShadow_2167_31238" result="shape"/>
</filter>
<filter id="filter4_d_2167_31238" x="31.6085" y="41.4825" width="6.24872" height="11.0848" filterUnits="userSpaceOnUse" color-interpolation-filters="sRGB">
<feFlood flood-opacity="0" result="BackgroundImageFix"/>
<feColorMatrix in="SourceAlpha" type="matrix" values="0 0 0 0 0 0 0 0 0 0 0 0 0 0 0 0 0 0 127 0" result="hardAlpha"/>
<feOffset dx="1" dy="1"/>
<feComposite in2="hardAlpha" operator="out"/>
<feColorMatrix type="matrix" values="0 0 0 0 0 0 0 0 0 0 0 0 0 0 0 0 0 0 0.25 0"/>
<feBlend mode="normal" in2="BackgroundImageFix" result="effect1_dropShadow_2167_31238"/>
<feBlend mode="normal" in="SourceGraphic" in2="effect1_dropShadow_2167_31238" result="shape"/>
</filter>
</defs>
</svg>
